<?xml version="1.0" encoding="iso-8859-1"?>
<!-- Generator: Adobe Illustrator 19.0.0, SVG Export Plug-In . SVG Version: 6.00 Build 0)  -->
<svg version="1.1" id="Capa_1" xmlns="http://www.w3.org/2000/svg" xmlns:xlink="http://www.w3.org/1999/xlink" x="0px" y="0px"
	 viewBox="0 0 469.333 469.333" style="enable-background:new 0 0 469.333 469.333;" xml:space="preserve">
<path style="fill:#303C42;" d="M426.667,0h-384C19.135,0,0,19.135,0,42.667v384c0,23.531,19.135,42.667,42.667,42.667h384
	c23.531,0,42.667-19.135,42.667-42.667v-384C469.333,19.135,450.198,0,426.667,0z"/>
<g>
	<path id="SVGCleanerId_0" style="fill:#5C6671;" d="M42.667,21.333h384c11.76,0,21.333,9.573,21.333,21.333v42.667H21.333V42.667
		C21.333,30.906,30.906,21.333,42.667,21.333z"/>
</g>
<g>
	
		<linearGradient id="SVGCleanerId_0_3_" gradientUnits="userSpaceOnUse" x1="-64.5964" y1="625.4609" x2="-47.3174" y2="617.4039" gradientTransform="matrix(21.3333 0 0 -21.3333 1430.1112 13315.2227)">
		<stop  offset="0" style="stop-color:#FFFFFF;stop-opacity:0.2"/>
		<stop  offset="1" style="stop-color:#FFFFFF;stop-opacity:0"/>
	</linearGradient>
	<path id="SVGCleanerId_0_1_" style="fill:url(#SVGCleanerId_0_3_);" d="M42.667,21.333h384c11.76,0,21.333,9.573,21.333,21.333
		v42.667H21.333V42.667C21.333,30.906,30.906,21.333,42.667,21.333z"/>
</g>
<g>
	
		<linearGradient id="SVGCleanerId_0_4_" gradientUnits="userSpaceOnUse" x1="-61.6394" y1="626.9612" x2="-50.4335" y2="615.7543" gradientTransform="matrix(21.3333 0 0 -21.3333 1430.1112 13315.2227)">
		<stop  offset="0" style="stop-color:#FFFFFF;stop-opacity:0.2"/>
		<stop  offset="1" style="stop-color:#FFFFFF;stop-opacity:0"/>
	</linearGradient>
	<path id="SVGCleanerId_0_2_" style="fill:url(#SVGCleanerId_0_4_);" d="M42.667,21.333h384c11.76,0,21.333,9.573,21.333,21.333
		v42.667H21.333V42.667C21.333,30.906,30.906,21.333,42.667,21.333z"/>
</g>
<path style="fill:#FFFFFF;" d="M426.667,448h-384c-11.76,0-21.333-9.573-21.333-21.333v-320H448v320
	C448,438.427,438.427,448,426.667,448z"/>
<g>
	<circle style="fill:#303C42;" cx="53.333" cy="53.333" r="10.667"/>
	<circle style="fill:#303C42;" cx="96" cy="53.333" r="10.667"/>
	<circle style="fill:#303C42;" cx="138.667" cy="53.333" r="10.667"/>
	<path style="fill:#303C42;" d="M330.667,170.667h-32c-5.896,0-10.667,4.771-10.667,10.667c0,5.896,4.771,10.667,10.667,10.667h6.25
		l-70.25,70.25L164.417,192h6.25c5.896,0,10.667-4.771,10.667-10.667c0-5.896-4.771-10.667-10.667-10.667h-32
		c-5.896,0-10.667,4.771-10.667,10.667v32c0,5.896,4.771,10.667,10.667,10.667s10.667-4.771,10.667-10.667v-6.25l70.25,70.25
		l-70.25,70.25v-6.25c0-5.896-4.771-10.667-10.667-10.667S128,335.438,128,341.333v32c0,5.896,4.771,10.667,10.667,10.667h32
		c5.896,0,10.667-4.771,10.667-10.667s-4.771-10.667-10.667-10.667h-6.25l70.25-70.25l70.25,70.25h-6.25
		c-5.896,0-10.667,4.771-10.667,10.667S292.771,384,298.667,384h32c5.896,0,10.667-4.771,10.667-10.667v-32
		c0-5.896-4.771-10.667-10.667-10.667c-5.896,0-10.667,4.771-10.667,10.667v6.25l-70.25-70.25l70.25-70.25v6.25
		c0,5.896,4.771,10.667,10.667,10.667c5.896,0,10.667-4.771,10.667-10.667v-32C341.333,175.438,336.563,170.667,330.667,170.667z"/>
</g>
<linearGradient id="SVGID_1_" gradientUnits="userSpaceOnUse" x1="-68.6888" y1="619.0512" x2="-43.3842" y2="607.2509" gradientTransform="matrix(21.3333 0 0 -21.3333 1430.1112 13315.2227)">
	<stop  offset="0" style="stop-color:#FFFFFF;stop-opacity:0.2"/>
	<stop  offset="1" style="stop-color:#FFFFFF;stop-opacity:0"/>
</linearGradient>
<path style="fill:url(#SVGID_1_);" d="M426.667,0h-384C19.135,0,0,19.135,0,42.667v384c0,23.531,19.135,42.667,42.667,42.667h384
	c23.531,0,42.667-19.135,42.667-42.667v-384C469.333,19.135,450.198,0,426.667,0z"/>
<g>
</g>
<g>
</g>
<g>
</g>
<g>
</g>
<g>
</g>
<g>
</g>
<g>
</g>
<g>
</g>
<g>
</g>
<g>
</g>
<g>
</g>
<g>
</g>
<g>
</g>
<g>
</g>
<g>
</g>
</svg>
