<?xml version="1.0" encoding="iso-8859-1"?>
<!-- Generator: Adobe Illustrator 19.0.0, SVG Export Plug-In . SVG Version: 6.00 Build 0)  -->
<svg version="1.1" id="Capa_1" xmlns="http://www.w3.org/2000/svg" xmlns:xlink="http://www.w3.org/1999/xlink" x="0px" y="0px"
	 viewBox="0 0 512 512" style="enable-background:new 0 0 512 512;" xml:space="preserve">
<path style="fill:#303C42;" d="M469.333,64H106.667C83.135,64,64,83.135,64,106.667v362.667C64,492.865,83.135,512,106.667,512
	h362.667C492.865,512,512,492.865,512,469.333V106.667C512,83.135,492.865,64,469.333,64z"/>
<g>
	<path id="SVGCleanerId_0" style="fill:#5C6671;" d="M106.667,85.333h362.667c11.76,0,21.333,9.573,21.333,21.333v42.667H85.333
		v-42.667C85.333,94.906,94.906,85.333,106.667,85.333z"/>
</g>
<g>
	
		<linearGradient id="SVGCleanerId_0_3_" gradientUnits="userSpaceOnUse" x1="-41.3522" y1="644.6028" x2="-24.8949" y2="636.9286" gradientTransform="matrix(21.3333 0 0 -21.3333 996.3334 13791.667)">
		<stop  offset="0" style="stop-color:#FFFFFF;stop-opacity:0.2"/>
		<stop  offset="1" style="stop-color:#FFFFFF;stop-opacity:0"/>
	</linearGradient>
	<path id="SVGCleanerId_0_1_" style="fill:url(#SVGCleanerId_0_3_);" d="M106.667,85.333h362.667
		c11.76,0,21.333,9.573,21.333,21.333v42.667H85.333v-42.667C85.333,94.906,94.906,85.333,106.667,85.333z"/>
</g>
<g>
	
		<linearGradient id="SVGCleanerId_0_4_" gradientUnits="userSpaceOnUse" x1="-38.5561" y1="646.0446" x2="-27.8502" y2="635.3376" gradientTransform="matrix(21.3333 0 0 -21.3333 996.3334 13791.667)">
		<stop  offset="0" style="stop-color:#FFFFFF;stop-opacity:0.2"/>
		<stop  offset="1" style="stop-color:#FFFFFF;stop-opacity:0"/>
	</linearGradient>
	<path id="SVGCleanerId_0_2_" style="fill:url(#SVGCleanerId_0_4_);" d="M106.667,85.333h362.667
		c11.76,0,21.333,9.573,21.333,21.333v42.667H85.333v-42.667C85.333,94.906,94.906,85.333,106.667,85.333z"/>
</g>
<path style="fill:#FFFFFF;" d="M469.333,490.667H106.667c-11.76,0-21.333-9.573-21.333-21.333V170.667h405.333v298.667
	C490.667,481.094,481.094,490.667,469.333,490.667z"/>
<path style="fill:#303C42;" d="M405.333,0H42.667C19.135,0,0,19.135,0,42.667v362.667C0,428.865,19.135,448,42.667,448h362.667
	C428.865,448,448,428.865,448,405.333V42.667C448,19.135,428.865,0,405.333,0z"/>
<g>
	<path id="SVGCleanerId_1" style="fill:#5C6671;" d="M42.667,21.333h362.667c11.76,0,21.333,9.573,21.333,21.333v42.667H21.333
		V42.667C21.333,30.906,30.906,21.333,42.667,21.333z"/>
</g>
<g>
	
		<linearGradient id="SVGCleanerId_1_3_" gradientUnits="userSpaceOnUse" x1="-44.3522" y1="647.6028" x2="-27.8949" y2="639.9286" gradientTransform="matrix(21.3333 0 0 -21.3333 996.3334 13791.667)">
		<stop  offset="0" style="stop-color:#FFFFFF;stop-opacity:0.2"/>
		<stop  offset="1" style="stop-color:#FFFFFF;stop-opacity:0"/>
	</linearGradient>
	<path id="SVGCleanerId_1_1_" style="fill:url(#SVGCleanerId_1_3_);" d="M42.667,21.333h362.667c11.76,0,21.333,9.573,21.333,21.333
		v42.667H21.333V42.667C21.333,30.906,30.906,21.333,42.667,21.333z"/>
</g>
<g>
	
		<linearGradient id="SVGCleanerId_1_4_" gradientUnits="userSpaceOnUse" x1="-41.5561" y1="649.0446" x2="-30.8502" y2="638.3376" gradientTransform="matrix(21.3333 0 0 -21.3333 996.3334 13791.667)">
		<stop  offset="0" style="stop-color:#FFFFFF;stop-opacity:0.2"/>
		<stop  offset="1" style="stop-color:#FFFFFF;stop-opacity:0"/>
	</linearGradient>
	<path id="SVGCleanerId_1_2_" style="fill:url(#SVGCleanerId_1_4_);" d="M42.667,21.333h362.667c11.76,0,21.333,9.573,21.333,21.333
		v42.667H21.333V42.667C21.333,30.906,30.906,21.333,42.667,21.333z"/>
</g>
<path style="fill:#FFFFFF;" d="M405.333,426.667H42.667c-11.76,0-21.333-9.573-21.333-21.333V106.667h405.333v298.667
	C426.667,417.094,417.094,426.667,405.333,426.667z"/>
<g>
	<circle style="fill:#303C42;" cx="53.333" cy="53.333" r="10.667"/>
	<circle style="fill:#303C42;" cx="96" cy="53.333" r="10.667"/>
	<circle style="fill:#303C42;" cx="138.667" cy="53.333" r="10.667"/>
</g>
<linearGradient id="SVGID_1_" gradientUnits="userSpaceOnUse" x1="-48.5598" y1="640.9462" x2="-20.8464" y2="628.0225" gradientTransform="matrix(21.3333 0 0 -21.3333 996.3334 13791.667)">
	<stop  offset="0" style="stop-color:#FFFFFF;stop-opacity:0.2"/>
	<stop  offset="1" style="stop-color:#FFFFFF;stop-opacity:0"/>
</linearGradient>
<path style="fill:url(#SVGID_1_);" d="M469.333,64H448V42.667C448,19.135,428.865,0,405.333,0H42.667C19.135,0,0,19.135,0,42.667
	v362.667C0,428.865,19.135,448,42.667,448H64v21.333C64,492.865,83.135,512,106.667,512h362.667
	C492.865,512,512,492.865,512,469.333V106.667C512,83.135,492.865,64,469.333,64z"/>
<g>
</g>
<g>
</g>
<g>
</g>
<g>
</g>
<g>
</g>
<g>
</g>
<g>
</g>
<g>
</g>
<g>
</g>
<g>
</g>
<g>
</g>
<g>
</g>
<g>
</g>
<g>
</g>
<g>
</g>
</svg>
